<svg width="45" height="48" viewBox="0 0 45 48" fill="none" xmlns="http://www.w3.org/2000/svg">
<path d="M21.7317 0.00219735C11.929 0.00219735 1.65778 7.58015 1.41717 20.4973C1.20317 21.2422 1.02679 21.9924 0.89687 22.7344C0.89687 22.7368 0.89687 22.7371 0.89455 22.7397C0.710953 23.8209 0.672132 24.5244 0.746805 25.2414C0.794769 25.7018 0.912 26.3604 1.01292 26.9568C0.963375 26.9725 0.952121 26.9568 0.895501 26.9777C0.728055 27.0405 0.508932 27.1517 0.316797 27.3797C0.124661 27.6078 0.0115144 27.9476 0.00947239 28.22C0.0062237 28.6634 -0.00468255 29.1498 0.0022789 29.5878C0.00761588 29.9206 0.182487 30.2804 0.382513 30.4802C0.582538 30.68 0.77523 30.7653 0.935436 30.8232C1.25585 30.9391 1.50019 30.9514 1.73946 30.9611C1.86722 30.9663 1.92143 30.9506 2.0408 30.948C2.04799 30.9611 2.05518 30.975 2.06238 30.987C2.08916 31.0315 2.11568 31.0631 2.13854 31.1003C2.13552 31.2258 2.13065 31.3764 2.12438 31.5906C2.10953 32.1089 2.09818 32.8288 2.16107 33.636C2.28804 35.2654 2.67802 36.2912 2.96233 36.834C3.35342 37.5806 4.26015 37.8768 4.3416 37.8971C4.72262 37.9924 4.6987 37.9463 4.86406 37.9526C5.02941 37.9578 5.2228 37.9631 5.42023 37.9631C5.61763 37.9631 5.81715 37.9607 5.99448 37.9552C6.17183 37.95 6.26966 37.9576 6.51109 37.9113C6.87519 37.8422 6.94525 37.7404 7.03774 37.6696C7.13023 37.5987 7.19632 37.5338 7.26113 37.4642C7.39076 37.3253 7.50743 37.1687 7.6228 36.9785C7.82049 36.6525 8.00701 36.2293 8.12057 35.7149C8.12057 35.7149 8.12057 35.7173 8.12057 35.7175C13.9856 42.7914 21.5712 48 21.5712 48C21.5712 48 28.7703 42.6998 34.4955 35.4539C34.5354 35.5677 34.5792 35.6946 34.6334 35.8572C34.7971 36.3481 35.0504 36.702 35.3083 37.0243C35.4373 37.1854 35.5671 37.3297 35.7054 37.4611C35.8436 37.5924 35.9056 37.7154 36.3085 37.8632C36.8062 38.0458 36.9305 37.9817 37.2413 37.9901C37.5522 37.9979 37.9055 37.9927 38.2551 37.9796C38.6047 37.9665 38.9451 37.9427 39.2377 37.9092C39.3839 37.8936 39.5158 37.8745 39.656 37.8444C39.7262 37.8287 39.7975 37.8127 39.8954 37.7779C39.9933 37.7429 40.1189 37.7369 40.3699 37.4784C40.2913 37.5595 40.4312 37.4242 40.5434 37.3041C40.6557 37.1841 40.7956 37.0192 40.9405 36.8075C41.2301 36.3839 41.5399 35.7708 41.7363 34.9506C41.9352 34.12 41.9885 33.2244 42.0065 32.4896C42.0156 32.1222 42.0133 31.7977 42.0091 31.5546C42.0068 31.4843 42.0068 31.4989 42.0065 31.4366C42.0773 31.3344 42.1126 31.2551 42.1479 31.1756C42.1599 31.1732 42.1672 31.1732 42.1795 31.1703C42.3892 31.1356 42.6055 31.0963 42.8309 31.032C42.9436 30.9998 43.0562 30.9663 43.2115 30.8873C43.3087 30.8379 43.463 30.7358 43.6126 30.5574C43.7709 30.3976 43.8417 30.2601 43.8868 30.1613C43.9518 30.0193 43.9903 29.8997 44.0277 29.7761C44.1027 29.5289 44.1625 29.2716 44.2182 29.0342C44.2205 29.0263 44.2221 29.0159 44.2239 29.0077C44.3014 28.636 44.3494 28.2045 44.1917 27.74C44.0383 27.2882 43.6958 26.9367 43.3537 26.7031C43.1451 26.554 43.0616 26.5443 42.9925 26.5226C42.9187 26.4991 42.8634 26.4868 42.8081 26.4748C42.8047 26.4748 42.8013 26.4748 42.7981 26.4724C42.8385 26.2126 42.8826 25.9449 42.9043 25.7387C42.9415 25.385 42.9346 24.9921 42.9346 24.5431C42.9346 24.0942 42.9296 23.6472 42.9296 23.5496C42.9296 22.8443 42.7331 22.489 42.5222 22.0672C42.3414 21.7056 42.1603 21.5229 41.9633 21.3107C41.8648 21.2048 41.7666 21.1064 41.6651 21.0152C41.5793 20.9381 41.5289 20.8737 41.3577 20.7767C41.397 20.3037 41.4156 19.8309 41.4102 19.3592C41.2502 5.43979 27.9708 0 21.7311 0L21.7317 0.00219735ZM21.6498 6.0021C24.6951 6.00584 27.6499 7.03803 30.0351 8.93134C32.4203 10.8246 34.0962 13.4681 34.7909 16.4331C34.7507 16.3766 34.7148 16.3258 34.6729 16.2675C34.1893 15.5926 33.6196 14.8163 33.1325 14.2547C32.2867 13.2794 31.4746 12.2553 30.5111 11.3472C30.4188 11.2601 30.3123 11.1898 30.1961 11.1388C29.7625 10.9491 29.6186 10.9776 29.2738 10.9321C28.9362 10.8876 28.5224 10.8484 28.0677 10.8183C26.8661 10.704 25.0514 10.626 22.9423 10.6153C22.6783 10.614 22.4097 10.6137 22.1372 10.6148C20.2296 10.62 18.1292 10.681 16.0539 10.816C14.2663 10.9321 12.5043 11.1037 10.9028 11.3505C12.1611 9.69139 13.7857 8.34543 15.6499 7.41771C17.5141 6.48999 19.5675 6.00561 21.6498 6.00237L21.6498 6.0021ZM22.1496 11.7219C24.58 11.714 26.6864 11.7964 27.9702 11.9189C28.8616 11.9769 29.5758 12.074 29.7529 12.1514C30.6371 12.9847 31.433 13.9815 32.2978 14.9786C33.1627 15.9758 34.5704 18.0549 34.701 18.2174C34.8316 18.3798 35.7897 18.2467 35.8843 18.3817C35.9555 18.4832 35.9179 19.2848 35.9128 19.4156C35.9055 19.5992 35.254 19.5419 35.254 19.5419L35.576 19.8754C35.576 19.8754 40.6041 21.6339 40.7591 21.7114C40.9142 21.7888 41.3986 22.2927 41.5343 22.564C41.6699 22.8353 41.8249 23.3004 41.8249 23.5523C41.8249 23.8042 41.8443 25.2575 41.8056 25.6257C41.7668 25.9938 41.5731 27.0789 41.5925 27.2339C41.6119 27.389 41.6699 27.4278 41.8443 27.4471C42.0187 27.4654 42.6388 27.5442 42.7163 27.6022C43.1769 27.9075 43.2594 28.2238 43.1427 28.7842C43.0325 29.2543 42.9108 29.7602 42.7939 29.8306C42.7368 30.0367 41.2496 30.1718 41.2437 30.1987C41.2437 30.2762 41.2049 30.6832 41.0886 30.8382C40.9724 30.9934 40.8949 30.9931 40.8949 31.1482C40.8949 31.3033 40.9918 33.3185 40.6624 34.6943C40.3329 36.0701 39.6637 36.6204 39.5773 36.7095C39.4256 36.8659 37.0505 36.9582 36.6901 36.8259C36.4772 36.7477 35.8568 36.0314 35.6824 35.5083C35.508 34.9851 35.4111 34.7331 35.3336 34.5199C35.2561 34.3067 35.2561 33.7836 35.1786 33.6092C35.1011 33.4347 34.7716 33.2217 34.4616 33.241C34.1516 33.2593 33.0665 33.1053 32.9115 33.1442C32.7565 33.183 31.5163 33.8031 31.1287 33.8225C30.7412 33.8408 30.315 33.8806 30.1212 33.7838C29.9274 33.687 29.7724 33.6483 29.3848 33.6483C28.9973 33.6483 28.2221 33.7063 27.9315 33.7257C27.6408 33.744 27.0402 33.8228 27.0208 33.8808C27.0015 33.9389 26.8852 35.0822 26.6333 35.4504C26.3814 35.8185 26.1488 36.0898 25.955 36.1479C25.7613 36.206 24.773 36.3031 24.5598 36.2447C24.3467 36.1866 23.9204 36.0511 23.746 35.7991C23.5716 35.5472 23.2422 34.8108 23.2422 34.7333C23.2422 34.6559 22.5834 34.7334 22.254 34.6559C21.9246 34.5785 21.5951 34.2683 21.4595 34.2102C21.3238 34.1521 20.5294 34.094 20.3356 33.9776C20.1418 33.8615 19.89 33.7062 19.5799 33.7062C19.2699 33.7062 17.1384 33.9001 17.0221 33.9581C16.9059 34.0162 16.7314 34.1907 16.7121 34.307C16.6928 34.4231 16.5764 35.954 16.3439 36.6322C16.1114 37.3104 15.9951 37.5429 15.7431 37.6205C15.4913 37.6979 12.9334 37.7756 12.7397 37.6205C12.5459 37.4653 12.0034 36.8454 11.7321 35.644C11.4609 34.4426 11.4026 33.1055 11.3057 33.0474C11.2089 32.9893 8.82554 32.9312 8.82554 32.9312C8.28726 33.1646 7.81191 33.2825 7.23657 33.3381C7.23657 33.3381 7.23654 34.3071 7.08151 35.2759C6.9265 36.2448 6.42219 36.8041 6.3064 36.8261C6.05997 36.8729 4.76593 36.8648 4.61092 36.8261C4.45591 36.7874 4.15555 36.7293 3.94241 36.3223C3.72926 35.9154 3.38044 35.0434 3.26416 33.5513C3.14791 32.0593 3.30294 30.8385 3.22543 30.7416C3.14793 30.6448 2.85724 30.199 2.83789 30.0634C2.8184 29.9276 2.91544 29.8696 2.76041 29.8115C2.35363 29.8518 1.11486 29.9763 1.10834 29.5716C1.10185 29.1669 1.11229 28.6843 1.11577 28.2296C1.11902 27.775 2.18101 28.1106 2.25666 27.7574C1.87768 25.1159 1.63338 24.9982 1.98528 22.9256C2.52096 19.866 3.93986 16.5411 5.49266 14.264C7.61195 12.3294 15.9387 11.7393 22.1497 11.7223L22.1496 11.7219ZM21.6216 12.4206C21.3915 12.4201 21.1654 12.4214 20.9447 12.423C17.4138 12.4533 11.7079 12.9715 11.5949 13.0629C11.4819 13.1542 11.3971 14.9523 11.2841 16.4761C11.1711 17.9998 11.3124 20.0722 11.3124 20.0722C11.3124 20.0722 21.7921 19.5236 24.1649 19.4931C26.5376 19.4628 34.7156 19.5844 34.7156 19.5844C34.7156 19.5844 32.9361 16.9636 32.4559 16.2931C31.9756 15.6226 29.9137 13.0323 29.6594 12.8495C29.4211 12.6781 25.0735 12.4263 21.6216 12.4206L21.6216 12.4206ZM10.4869 13.2285C10.19 13.2416 8.51043 13.6474 8.43599 13.6904C8.35659 13.7362 7.90662 15.3428 7.41695 16.9341C6.92729 18.5253 6.6776 20.518 6.70408 20.6098C7.19249 20.5444 10.2974 20.1585 10.2974 20.1585C10.2974 20.1585 10.6328 13.2773 10.5269 13.2314C10.5202 13.2287 10.5067 13.2287 10.4869 13.2287L10.4869 13.2285ZM7.9411 13.8494C7.6771 13.8572 5.85207 14.6169 5.71393 14.7168C4.50406 17.0154 3.82448 18.6166 3.06731 21.0095C3.95095 20.8991 6.10797 20.6227 6.10797 20.6227C6.10797 20.6227 6.43212 18.5226 6.80047 17.2292C7.09893 16.1812 8.01624 13.965 7.97204 13.8585C7.96926 13.8507 7.9588 13.848 7.9411 13.8507L7.9411 13.8494ZM4.36826 13.9585C4.35131 13.9846 4.33438 14.0103 4.31754 14.0364C4.33449 14.0103 4.35135 13.9844 4.36826 13.9585ZM4.11046 14.3637C4.1035 14.3741 4.09654 14.3872 4.08958 14.3979C4.09654 14.3875 4.1035 14.3744 4.11046 14.3637ZM3.90082 14.7107C3.8862 14.7343 3.87168 14.7596 3.85718 14.7845C3.87156 14.7609 3.88627 14.7353 3.90082 14.7107ZM3.65369 15.1382C3.64582 15.1513 3.63815 15.1665 3.6302 15.1806C3.63807 15.1675 3.64574 15.1521 3.65369 15.1382ZM3.44503 15.5182C3.4346 15.5365 3.42416 15.5566 3.41375 15.576C3.42419 15.5577 3.43463 15.5375 3.44503 15.5182ZM3.21925 15.9478C3.20811 15.9687 3.19696 15.9917 3.18579 16.0137C3.19693 15.9927 3.20808 15.9697 3.21925 15.9478ZM3.01048 16.3651C3.00352 16.3808 2.99633 16.3939 2.98937 16.4083C2.99633 16.3926 3.00352 16.3795 3.01048 16.3651ZM2.79822 16.8101C2.7915 16.8258 2.78478 16.8394 2.77803 16.8541C2.78475 16.8384 2.79147 16.8248 2.79822 16.8101ZM2.40657 17.6963C2.40077 17.7094 2.39497 17.724 2.38917 17.7382C2.39497 17.7251 2.40077 17.7104 2.40657 17.6963ZM36.9107 17.944C36.9387 17.9984 36.9558 18.0429 36.9666 18.0808C36.9776 18.1185 36.9818 18.1496 36.9849 18.1774C36.9881 18.2051 36.9891 18.2292 36.9936 18.2532C37.0022 18.3014 37.0082 18.3432 37.0127 18.3817C37.0082 18.3432 37.0022 18.3014 36.9936 18.2532C36.9891 18.2297 36.9881 18.2051 36.9849 18.1774C36.9823 18.1499 36.9776 18.1188 36.9666 18.0808C36.9559 18.0432 36.9387 17.9987 36.9107 17.944ZM37.0221 18.4903C37.032 18.6311 37.0333 18.7633 37.0325 18.8933C37.0325 18.7633 37.0325 18.6311 37.0221 18.4903ZM2.04444 18.6067C2.0398 18.6198 2.03493 18.6329 2.03029 18.6444C2.03493 18.6313 2.0398 18.6183 2.04444 18.6067ZM1.71445 19.5385C1.71096 19.5489 1.70748 19.5594 1.70424 19.5694C1.70748 19.5589 1.7112 19.5484 1.71445 19.5385ZM39.2695 23.528C38.3608 23.5304 37.2135 23.5437 37.0512 23.5542C36.821 23.5646 36.468 23.6627 36.4514 23.9668C36.4346 24.2708 36.4152 25.3016 36.4818 25.4427C36.5485 25.5837 36.7152 25.8554 37.2317 25.8554C37.7481 25.8554 40.1502 25.8789 40.3835 25.8234C40.6167 25.769 40.9499 25.7366 40.9499 25.248C40.9499 24.7594 40.9166 23.9994 40.8499 23.8691C40.7833 23.7388 40.6751 23.5867 40.3835 23.5433C40.2741 23.5302 39.8147 23.5276 39.2695 23.5276L39.2695 23.528ZM21.4491 23.8739C21.3211 23.866 18.2263 23.9356 17.854 23.9356C17.4701 23.9743 17.3268 24.2528 17.3187 24.4306C17.3106 24.6085 17.2955 25.2814 17.3536 25.7222C17.4118 26.163 17.7478 26.2517 17.9936 26.2945C18.2721 26.3429 21.3561 26.2561 21.612 26.2482C21.868 26.2404 22.0658 26.0395 22.089 25.8461C22.1007 25.5599 22.1239 24.5931 22.0774 24.276C22.0309 23.9589 21.5771 23.8816 21.4491 23.8738L21.4491 23.8739ZM12.7784 29.2089C12.657 29.2089 12.5367 29.3044 12.4245 29.4899C12.3123 29.6753 12.2103 29.9472 12.1244 30.29C12.0386 30.6327 11.9704 31.0396 11.924 31.4874C11.8775 31.9352 11.8535 32.4152 11.8535 32.8999C11.8535 33.3846 11.8775 33.8646 11.924 34.3124C11.9704 34.7602 12.0386 35.1671 12.1244 35.5098C12.2103 35.8526 12.3123 36.1244 12.4245 36.3099C12.5367 36.4954 12.657 36.5909 12.7784 36.5909C12.8999 36.5909 13.0202 36.4954 13.1324 36.3099C13.2446 36.1244 13.3466 35.8526 13.4324 35.5098C13.5183 35.1671 13.5865 34.7602 13.6329 34.3124C13.6794 33.8646 13.7033 33.3846 13.7033 32.8999C13.7033 32.4152 13.6794 31.9352 13.6329 31.4874C13.5865 31.0396 13.5183 30.6327 13.4324 30.29C13.3466 29.9472 13.2446 29.6753 13.1324 29.4899C13.0202 29.3044 12.8999 29.2089 12.7784 29.2089ZM34.2469 29.3149C33.9628 29.3306 27.113 29.4967 26.8188 29.4891C26.5246 29.4813 26.9154 31.3502 27.164 31.3888C27.4127 31.4272 33.6976 31.2522 33.9413 31.2146C34.1851 31.1771 34.5309 29.2994 34.2469 29.3149V29.3149ZM4.27593 29.4349C4.08879 29.435 3.90932 29.7552 3.77699 30.325C3.64467 30.8948 3.57034 31.6676 3.57034 32.4735C3.57034 33.2793 3.64468 34.052 3.777 34.6218C3.90932 35.1916 4.08879 35.5118 4.27593 35.5118C4.3686 35.5119 4.46036 35.4333 4.54598 35.2806C4.63159 35.1279 4.70939 34.9041 4.77492 34.622C4.84044 34.3398 4.89243 34.0049 4.92789 33.6362C4.96335 33.2676 4.98161 32.8725 4.98161 32.4735C4.98161 32.0744 4.96336 31.6793 4.9279 31.3106C4.89244 30.942 4.84046 30.607 4.77493 30.3249C4.7094 30.0427 4.6316 29.8189 4.54598 29.6662C4.46037 29.5135 4.3686 29.4349 4.27593 29.4349ZM34.3914 35.1608C34.4209 35.2417 34.4517 35.3272 34.4896 35.4352C34.4529 35.3308 34.4206 35.2411 34.3914 35.1608Z" fill="white"/>
</svg>
