<svg width="96" height="105" viewBox="0 0 96 105" fill="none" xmlns="http://www.w3.org/2000/svg">
<path d="M47.0977 0.00476218C25.853 0.00476218 3.5928 16.428 3.07134 44.4225C2.60756 46.0369 2.2253 47.6627 1.94373 49.2709C1.94373 49.276 1.94373 49.2766 1.9387 49.2822C1.5408 51.6256 1.45667 53.1501 1.6185 54.7041C1.72245 55.7017 1.97652 57.1292 2.19523 58.4217C2.08786 58.4557 2.06347 58.4217 1.94076 58.4671C1.57787 58.6031 1.10298 58.8441 0.686573 59.3382C0.27017 59.8325 0.0249545 60.5691 0.0205289 61.1594C0.0134882 62.1203 -0.0101482 63.1744 0.00493892 64.1237C0.0165054 64.845 0.395493 65.6248 0.828995 66.0577C1.2625 66.4908 1.68011 66.6757 2.02731 66.8012C2.72172 67.0524 3.25127 67.079 3.76982 67.1C4.04672 67.1113 4.16419 67.0773 4.42289 67.0716C4.43848 67.1 4.45407 67.13 4.46966 67.1561C4.52769 67.2525 4.58518 67.3211 4.63471 67.4016C4.62817 67.6737 4.61761 68.0001 4.60403 68.4643C4.57185 69.5874 4.54726 71.1476 4.68354 72.8971C4.95873 76.4285 5.80391 78.6515 6.42007 79.8279C7.26766 81.4459 9.23275 82.0878 9.40927 82.132C10.235 82.3384 10.1832 82.2386 10.5416 82.2522C10.8999 82.2635 11.319 82.2749 11.7469 82.2749C12.1747 82.2749 12.6071 82.2698 12.9914 82.2579C13.3758 82.2465 13.5878 82.263 14.1111 82.1626C14.9002 82.013 15.052 81.7924 15.2524 81.6388C15.4529 81.4851 15.5961 81.3445 15.7366 81.1937C16.0175 80.8927 16.2704 80.5533 16.5204 80.141C16.9488 79.4346 17.3531 78.5174 17.5992 77.4026C17.5992 77.4026 17.5992 77.4077 17.5992 77.4083C30.31 92.7389 46.7499 104.027 46.7499 104.027C46.7499 104.027 62.3521 92.5406 74.7599 76.8369C74.8464 77.0835 74.9413 77.3585 75.0588 77.7109C75.4135 78.7749 75.9624 79.5419 76.5214 80.2403C76.8009 80.5895 77.0822 80.9022 77.3819 81.187C77.6816 81.4716 77.8159 81.7381 78.6891 82.0585C79.7677 82.4542 80.0371 82.3153 80.7107 82.3334C81.3844 82.3504 82.15 82.3391 82.9078 82.3108C83.6655 82.2824 84.4032 82.2308 85.0372 82.1583C85.3543 82.1242 85.6399 82.0829 85.944 82.0177C86.096 81.9836 86.2506 81.9491 86.4627 81.8737C86.6748 81.7977 86.9471 81.7847 87.4911 81.2244C87.3207 81.4002 87.6239 81.1071 87.8671 80.8468C88.1104 80.5866 88.4137 80.2294 88.7276 79.7704C89.3553 78.8524 90.0268 77.5238 90.4524 75.7461C90.8835 73.9461 90.9991 72.0051 91.038 70.4126C91.0578 69.6163 91.0527 68.9131 91.0436 68.3863C91.0385 68.2338 91.0385 68.2655 91.038 68.1306C91.1914 67.9089 91.2679 67.7372 91.3443 67.5648C91.3704 67.5597 91.3863 67.5597 91.4129 67.5535C91.8674 67.4781 92.3362 67.393 92.8246 67.2536C93.0688 67.1838 93.3129 67.1113 93.6494 66.94C93.86 66.8329 94.1945 66.6118 94.5188 66.2251C94.8617 65.8787 95.0152 65.5808 95.1131 65.3667C95.2538 65.0589 95.3373 64.7996 95.4185 64.5317C95.5809 63.996 95.7106 63.4385 95.8311 62.9239C95.8362 62.9069 95.8396 62.8842 95.8436 62.8666C96.0115 62.061 96.1155 61.1258 95.7738 60.1191C95.4413 59.1398 94.699 58.3781 93.9577 57.872C93.5056 57.5488 93.3245 57.5278 93.1749 57.4808C93.0149 57.4297 92.895 57.4031 92.7752 57.377C92.7678 57.377 92.7604 57.377 92.7536 57.3719C92.8411 56.809 92.9366 56.2286 92.9836 55.7817C93.0643 55.0152 93.0493 54.1637 93.0493 53.1907C93.0493 52.2178 93.0386 51.2491 93.0386 51.0376C93.0386 49.5091 92.6126 48.739 92.1555 47.8247C91.7637 47.041 91.3714 46.6452 90.9444 46.1853C90.731 45.9557 90.518 45.7425 90.2981 45.545C90.112 45.3777 90.003 45.2383 89.6318 45.0279C89.7171 44.0028 89.7574 42.9783 89.7456 41.9559C89.3989 11.7893 60.6193 0 47.0963 0L47.0977 0.00476218ZM46.9202 13.008C53.5201 13.0161 59.9238 15.2531 65.0931 19.3563C70.2625 23.4595 73.8944 29.1885 75.4002 35.6143C75.313 35.4918 75.2351 35.3818 75.1444 35.2554C74.0963 33.7928 72.8615 32.1103 71.806 30.8932C69.9728 28.7797 68.2128 26.56 66.1247 24.5922C65.9247 24.4034 65.6938 24.2509 65.442 24.1403C64.5024 23.7293 64.1904 23.7911 63.4432 23.6924C62.7116 23.5961 61.8147 23.511 60.8293 23.4458C58.2252 23.1981 54.2923 23.0291 49.7215 23.0059C49.1493 23.0031 48.5672 23.0025 47.9766 23.0048C43.8424 23.0161 39.2901 23.1482 34.7925 23.4407C30.9184 23.6924 27.0998 24.0644 23.629 24.5993C26.3559 21.0035 29.8768 18.0865 33.917 16.0759C37.9572 14.0653 42.4074 13.0156 46.9202 13.0085L46.9202 13.008ZM48.0034 25.4041C53.2707 25.387 57.8358 25.5656 60.6181 25.831C62.5499 25.9568 64.0976 26.1671 64.4815 26.335C66.3978 28.141 68.1226 30.3012 69.9969 32.4622C71.8713 34.6232 74.9223 39.1293 75.2052 39.4814C75.4882 39.8334 77.5646 39.5449 77.7697 39.8374C77.9241 40.0574 77.8425 41.7946 77.8315 42.0781C77.8157 42.4761 76.4038 42.352 76.4038 42.352L77.1015 43.0747C77.1015 43.0747 87.9987 46.8857 88.3347 47.0537C88.6706 47.2215 89.7206 48.3135 90.0146 48.9015C90.3085 49.4894 90.6445 50.4975 90.6445 51.0434C90.6445 51.5893 90.6864 54.7389 90.6025 55.5368C90.5185 56.3347 90.0988 58.6864 90.1408 59.0223C90.1827 59.3585 90.3085 59.4424 90.6865 59.4844C91.0645 59.524 92.4084 59.6947 92.5764 59.8205C93.5746 60.482 93.7533 61.1677 93.5003 62.3822C93.2616 63.401 92.9977 64.4973 92.7445 64.6499C92.6208 65.0966 89.3977 65.3894 89.3848 65.4478C89.3848 65.6156 89.3007 66.4977 89.0488 66.8337C88.7968 67.1699 88.6288 67.1693 88.6288 67.5055C88.6288 67.8417 88.8388 72.2091 88.1249 75.1908C87.411 78.1724 85.9605 79.3651 85.7732 79.558C85.4445 79.8971 80.2972 80.0972 79.5161 79.8103C79.0546 79.6408 77.7102 78.0886 77.3323 76.9548C76.9543 75.8208 76.7442 75.2748 76.5763 74.8128C76.4083 74.3507 76.4082 73.2169 76.2402 72.839C76.0723 72.4608 75.3583 71.9992 74.6864 72.0411C74.0145 72.0808 71.6629 71.7469 71.3269 71.8314C70.991 71.9153 68.3032 73.2592 67.4633 73.3013C66.6234 73.341 65.6997 73.4271 65.2797 73.2174C64.8597 73.0076 64.5237 72.9237 63.6838 72.9237C62.8439 72.9237 61.164 73.0496 60.534 73.0915C59.9041 73.1312 58.6025 73.3018 58.5605 73.4277C58.5185 73.5536 58.2665 76.0314 57.7206 76.8293C57.1746 77.6272 56.6706 78.215 56.2507 78.3411C55.8307 78.4669 53.6889 78.6772 53.2269 78.5508C52.765 78.425 51.8411 78.1313 51.4631 77.5851C51.0852 77.0392 50.3713 75.4433 50.3713 75.2753C50.3713 75.1075 48.9436 75.2754 48.2297 75.1075C47.5158 74.9397 46.8016 74.2675 46.5077 74.1415C46.2137 74.0156 44.492 73.8898 44.0721 73.6375C43.6521 73.3857 43.1062 73.0493 42.4343 73.0493C41.7624 73.0493 37.143 73.4694 36.891 73.5953C36.639 73.7211 36.261 74.0993 36.219 74.3513C36.1772 74.603 35.9251 77.9209 35.4211 79.3907C34.9171 80.8605 34.665 81.3644 34.1191 81.5324C33.5732 81.7002 28.0298 81.8686 27.6098 81.5324C27.1899 81.1962 26.0143 79.8527 25.4263 77.249C24.8384 74.6453 24.7122 71.7475 24.5022 71.6215C24.2922 71.4956 19.127 71.3698 19.127 71.3698C17.9604 71.8755 16.9302 72.1309 15.6833 72.2516C15.6833 72.2516 15.6833 74.3515 15.3473 76.4513C15.0114 78.551 13.9184 79.7631 13.6675 79.8108C13.1334 79.9123 10.3289 79.8947 9.99295 79.8108C9.65701 79.7269 9.00606 79.601 8.54414 78.719C8.08218 77.8371 7.32621 75.9473 7.07421 72.7136C6.82225 69.48 7.15824 66.8343 6.99027 66.6243C6.8223 66.4146 6.19232 65.4484 6.15037 65.1544C6.10814 64.8602 6.31845 64.7344 5.98246 64.6085C5.10087 64.6958 2.41617 64.9657 2.40204 64.0886C2.38796 63.2116 2.41059 62.1656 2.41814 61.1803C2.42517 60.195 4.72676 60.9223 4.89071 60.1568C4.06937 54.4322 3.53991 54.1769 4.30256 49.6852C5.46351 43.0542 8.53861 35.8485 11.9039 30.9134C16.4969 26.7208 34.5428 25.4419 48.0035 25.4049L48.0034 25.4041ZM46.8592 26.9184C46.3604 26.9173 45.8703 26.9201 45.3921 26.9235C37.7398 26.9893 25.3737 28.1123 25.1288 28.3105C24.884 28.5083 24.7001 32.4052 24.4552 35.7075C24.2103 39.0098 24.5166 43.5011 24.5166 43.5011C24.5166 43.5011 47.2286 42.3122 52.371 42.2461C57.5133 42.1804 75.2369 42.444 75.2369 42.444C75.2369 42.444 71.3802 36.764 70.3395 35.311C69.2988 33.8579 64.83 28.2442 64.279 27.8479C63.7625 27.4765 54.3402 26.9306 46.8592 26.9183L46.8592 26.9184ZM22.7275 28.6692C22.0841 28.6976 18.4441 29.5771 18.2828 29.6703C18.1107 29.7695 17.1355 33.2516 16.0743 36.7001C15.0131 40.1486 14.4719 44.4673 14.5293 44.6663C15.5878 44.5246 22.3169 43.6881 22.3169 43.6881C22.3169 43.6881 23.0438 28.775 22.8143 28.6755C22.7998 28.6698 22.7706 28.6698 22.7275 28.6698L22.7275 28.6692ZM17.2102 30.0149C16.6381 30.0319 12.6828 31.6782 12.3834 31.8947C9.76135 36.8764 8.28855 40.3466 6.64758 45.5324C8.56263 45.2932 13.2374 44.6943 13.2374 44.6943C13.2374 44.6943 13.9399 40.1429 14.7382 37.3396C15.3851 35.0684 17.3731 30.2655 17.2773 30.0346C17.2713 30.0176 17.2486 30.0119 17.2102 30.0176L17.2102 30.0149ZM9.46705 30.2513C9.43031 30.308 9.39363 30.3636 9.35712 30.4202C9.39386 30.3636 9.43039 30.3074 9.46705 30.2513ZM8.90832 31.1294C8.89324 31.1521 8.87816 31.1804 8.86308 31.2037C8.87816 31.181 8.89324 31.1527 8.90832 31.1294ZM8.454 31.8816C8.42231 31.9326 8.39083 31.9876 8.35941 32.0414C8.39059 31.9904 8.42247 31.9349 8.454 31.8816ZM7.91841 32.8081C7.90134 32.8364 7.88473 32.8693 7.8675 32.8999C7.88456 32.8715 7.90117 32.8381 7.91841 32.8081ZM7.4662 33.6316C7.44358 33.6713 7.42096 33.7149 7.3984 33.7569C7.42102 33.7172 7.44364 33.6735 7.4662 33.6316ZM6.97687 34.5625C6.95272 34.6079 6.92857 34.6578 6.90435 34.7054C6.9285 34.66 6.95265 34.6101 6.97687 34.5625ZM6.52441 35.4671C6.50933 35.5011 6.49374 35.5295 6.47866 35.5607C6.49374 35.5266 6.50933 35.4983 6.52441 35.4671ZM6.06441 36.4315C6.04984 36.4655 6.03527 36.495 6.02064 36.5268C6.03521 36.4927 6.04978 36.4633 6.06441 36.4315ZM5.21561 38.3521C5.20303 38.3804 5.19046 38.4121 5.17789 38.4428C5.19046 38.4144 5.20303 38.3827 5.21561 38.3521ZM79.9941 38.8889C80.0548 39.0069 80.092 39.1032 80.1154 39.1854C80.1392 39.2671 80.1483 39.3345 80.1551 39.3946C80.1619 39.4547 80.1642 39.5069 80.1738 39.559C80.1925 39.6634 80.2055 39.7541 80.2152 39.8374C80.2055 39.7541 80.1925 39.6634 80.1738 39.559C80.1642 39.508 80.1619 39.4547 80.1551 39.3946C80.1494 39.3351 80.1392 39.2676 80.1154 39.1854C80.0922 39.1038 80.0548 39.0074 79.9941 38.8889ZM80.2355 40.0729C80.2571 40.3779 80.2599 40.6644 80.2582 40.9462C80.2582 40.6644 80.2582 40.3779 80.2355 40.0729ZM4.43078 40.3252C4.42073 40.3535 4.41016 40.3819 4.40011 40.4068C4.41016 40.3785 4.42073 40.3501 4.43078 40.3252ZM3.71561 42.3445C3.70806 42.3672 3.70052 42.3898 3.69348 42.4114C3.70051 42.3887 3.70856 42.366 3.71561 42.3445ZM85.1062 50.9907C83.1368 50.9958 80.6505 51.0247 80.2987 51.0474C79.7998 51.0701 79.0348 51.2827 78.9987 51.9417C78.9625 52.6006 78.9203 54.8345 79.0647 55.1404C79.2091 55.4459 79.5704 56.0346 80.6898 56.0346C81.8091 56.0346 87.015 56.0857 87.5205 55.9655C88.026 55.8476 88.7482 55.7773 88.7482 54.7183C88.7482 53.6594 88.6759 52.0123 88.5314 51.7299C88.387 51.4476 88.1524 51.118 87.5205 51.0238C87.2835 50.9955 86.2879 50.9898 85.1062 50.9898L85.1062 50.9907ZM46.4852 51.7403C46.2078 51.7233 39.5008 51.8741 38.6939 51.8741C37.8618 51.958 37.5513 52.5616 37.5338 52.9468C37.5162 53.3323 37.4833 54.7906 37.6094 55.746C37.7355 56.7014 38.4636 56.8937 38.9964 56.9865C39.5999 57.0913 46.2836 56.9031 46.8383 56.8861C47.3931 56.8691 47.8218 56.4337 47.8721 56.0145C47.8973 55.3943 47.9478 53.299 47.847 52.6119C47.7461 51.9246 46.7626 51.757 46.4852 51.7402L46.4852 51.7403ZM27.6939 63.3026C27.4307 63.3026 27.17 63.5095 26.9268 63.9115C26.6836 64.3134 26.4627 64.9026 26.2765 65.6454C26.0904 66.3882 25.9427 67.2701 25.842 68.2406C25.7413 69.2111 25.6894 70.2513 25.6894 71.3018C25.6894 72.3523 25.7413 73.3925 25.842 74.363C25.9427 75.3335 26.0904 76.2154 26.2765 76.9582C26.4627 77.701 26.6836 78.2902 26.9268 78.6921C27.17 79.0941 27.4307 79.301 27.6939 79.301C27.9571 79.301 28.2178 79.0941 28.461 78.6921C28.7042 78.2902 28.9251 77.7009 29.1113 76.9581C29.2974 76.2153 29.445 75.3335 29.5458 74.363C29.6465 73.3925 29.6984 72.3523 29.6984 71.3018C29.6984 70.2513 29.6465 69.2111 29.5458 68.2406C29.445 67.2701 29.2974 66.3882 29.1113 65.6455C28.9251 64.9027 28.7042 64.3134 28.461 63.9115C28.2178 63.5095 27.9571 63.3026 27.6939 63.3026ZM74.2211 63.5322C73.6055 63.5663 58.7602 63.9263 58.1227 63.9098C57.4851 63.8928 58.332 67.9433 58.8709 68.0269C59.4097 68.1102 73.0305 67.7309 73.5589 67.6493C74.0872 67.5682 74.8367 63.4988 74.2211 63.5322V63.5322ZM9.26695 63.7925C8.86136 63.7926 8.47241 64.4865 8.18563 65.7214C7.89886 66.9564 7.73776 68.6312 7.73777 70.3776C7.73778 72.124 7.89888 73.7988 8.18565 75.0337C8.47243 76.2686 8.86138 76.9624 9.26695 76.9625C9.46778 76.9626 9.66665 76.7923 9.8522 76.4614C10.0378 76.1305 10.2063 75.6454 10.3484 75.034C10.4904 74.4225 10.603 73.6966 10.6799 72.8976C10.7568 72.0987 10.7963 71.2424 10.7963 70.3776C10.7963 69.5128 10.7568 68.6565 10.6799 67.8575C10.6031 67.0586 10.4904 66.3326 10.3484 65.7211C10.2064 65.1096 10.0378 64.6245 9.85222 64.2936C9.66666 63.9627 9.46779 63.7924 9.26695 63.7925ZM74.5342 76.2018C74.5982 76.377 74.665 76.5624 74.747 76.7965C74.6675 76.5703 74.5976 76.3758 74.5342 76.2018Z" fill="url(#paint0_linear_851_165)"/>
<defs>
<linearGradient id="paint0_linear_851_165" x1="48" y1="0" x2="48" y2="104.027" gradientUnits="userSpaceOnUse">
<stop stop-color="#00AAFF"/>
<stop offset="1" stop-color="#2D54D2"/>
</linearGradient>
</defs>
</svg>
